<?xml version="1.0" encoding="UTF-8"?>
<svg width="256px" height="256px" viewBox="0 0 256 256" version="1.1" xmlns="http://www.w3.org/2000/svg" xmlns:xlink="http://www.w3.org/1999/xlink">
    <title>background_process</title>
    <g id="background_process" stroke="none" stroke-width="1" fill="none" fill-rule="evenodd">
        <rect id="Rectangle" stroke="#222222" stroke-width="5" fill="#FAFAFA" fill-rule="nonzero" x="36" y="78" width="184" height="101"></rect>
        <g id="process" transform="translate(169.000000, 83.000000)" fill="#000000" fill-rule="nonzero">
            <path d="M41.9620462,33.3632109 C41.7738643,32.7039503 41.0908567,32.3103891 40.4172778,32.4730876 L37.2118834,33.3250627 C38.9659019,30.7710318 40.0294512,27.8162859 40.3014202,24.7417317 C40.834658,18.9079753 38.5261318,13.171648 34.0837274,9.29173588 C33.5580272,8.86224614 32.7844186,8.91244724 32.3201169,9.40618029 C31.8515743,9.933129 31.90341,10.7353151 32.4359745,11.1991428 C36.2641108,14.5369907 38.2530168,19.4769408 37.7911716,24.5001268 C37.570677,27.1088474 36.6849362,29.6199158 35.2165576,31.7991372 L34.8947309,28.6074097 C34.9611459,28.0934134 34.7051871,27.5910185 34.2477189,27.3374571 C33.7902507,27.0838958 33.2227829,27.1298893 32.8132755,27.4537194 C32.403768,27.7775495 32.2341368,28.3144387 32.3844822,28.8108664 L33.0281357,37 L41.0738044,34.8891364 C41.736016,34.6978142 42.1277807,34.024795 41.9620462,33.3632109 L41.9620462,33.3632109 Z" id="Path"></path>
            <path d="M5.54247075,20.7910136 C5.7102689,20.8969449 5.90006687,20.9647049 6.09797736,20.9893359 C6.78368275,21.0776458 7.41413165,20.607897 7.5119942,19.9357489 C8.5940281,12.0920994 15.649344,6.39182437 23.6974369,6.85887524 L20.8694032,8.75533179 C20.4601435,9.05803236 20.277823,9.57356423 20.4079526,10.0601354 C20.5380823,10.5467065 20.9548499,10.9078017 21.4627853,10.974062 C21.7472174,10.9995905 22.0320616,10.9296767 22.2707949,10.7757398 L29,6.23911819 L23.2429315,0.562143658 C22.9626431,0.140481171 22.4503957,-0.0728174036 21.9468015,0.0224383059 C21.4432073,0.117694015 21.0483446,0.502574034 20.9476878,0.996292944 C20.847031,1.49001185 21.0605835,1.99445389 21.4880356,2.2726731 L23.6343111,4.37984706 C14.3453922,3.94378809 6.25900337,10.5533988 5.01221444,19.6010801 C4.94620346,20.0641688 5.15125424,20.5243176 5.54247075,20.7910136 Z" id="Path"></path>
            <path d="M27.4372826,36.8923238 C25.4494522,37.5007406 23.3526022,37.7124506 21.2760835,37.5143938 C16.1421363,37.0322089 11.5854751,34.1579588 9.09371265,29.8299996 L12.2634204,30.9643626 C12.866188,31.0645392 13.4580842,30.739705 13.67289,30.1908421 C13.8876958,29.6419791 13.6646573,29.0243232 13.1417732,28.7200316 L7.29881788,26.6464649 L7.29881788,26.6464649 L5.42754461,26 L4.01454234,33.7453814 C3.91280127,34.3882086 4.35517086,34.9945062 5.0201926,35.1236934 L5.23659836,35.1236934 C5.85509139,35.1344715 6.39214254,34.7176502 6.50957337,34.1356998 L7.04422288,31.2083116 C9.96558024,36.1118226 15.1833939,39.3570362 21.046948,39.9172916 C23.4629971,40.1467137 25.9024737,39.8976051 28.2137974,39.1854446 C28.8238766,38.943383 29.1395077,38.294528 28.9406661,37.6911926 C28.7418245,37.0878572 28.094532,36.7303681 27.4500124,36.8679289 L27.4372826,36.8923238 Z" id="Path"></path>
            <path d="M27.7,16 L17.3,16 C16.5820298,16 16,16.5820298 16,17.3 L16,27.7 C16,28.4179702 16.5820298,29 17.3,29 L27.7,29 C28.4179702,29 29,28.4179702 29,27.7 L29,17.3 C29,16.5820298 28.4179702,16 27.7,16 Z M26.4,26.4 L18.6,26.4 L18.6,18.6 L26.4,18.6 L26.4,26.4 Z" id="Shape"></path>
            <rect id="Rectangle" fill-opacity="0" x="0" y="0" width="45" height="45"></rect>
        </g>
    </g>
</svg>