<?xml version="1.0" encoding="UTF-8"?>
<svg width="256px" height="256px" viewBox="0 0 256 256" version="1.1" xmlns="http://www.w3.org/2000/svg" xmlns:xlink="http://www.w3.org/1999/xlink">
    <title>customer</title>
    <g id="customer" stroke="none" stroke-width="1" fill="none" fill-rule="evenodd">
        <path d="M199.051852,199 L195.699074,199 C195.699074,168.916206 173.454325,141.788406 142.804348,134.491963 C142.105853,134.323584 141.588966,133.729578 141.523773,133.009289 C141.453924,132.293676 141.854394,131.610804 142.51098,131.31614 C148.694992,128.55191 154.01287,124.127273 157.887191,118.528656 L160.64392,120.450988 C157.267859,125.329315 152.885965,129.38913 147.824201,132.359157 C177.747743,141.414229 199.051852,168.785244 199.051852,199 Z" id="customer--service_2_-path" stroke="#000000" stroke-width="5" fill="#000000" fill-rule="nonzero"></path>
        <path d="M59.3527778,199 L56,199 C56,168.785244 77.2994522,141.414229 107.232307,132.359157 C94.9667284,125.160935 87.2506829,111.896377 87.2506829,97.4438076 C87.2506829,75.1428854 105.313773,57 127.521269,57 C139.54936,57 150.851015,62.336693 158.529807,71.6396574 L155.945374,73.7911726 C148.913854,65.2599473 138.55284,60.3675889 127.525926,60.3675889 C107.167114,60.3675889 90.6081173,76.9997365 90.6081173,97.4438076 C90.6081173,112.060079 99.2182369,125.357378 112.545529,131.311462 C113.202114,131.606126 113.597928,132.288999 113.532735,133.004611 C113.467542,133.724901 112.950656,134.318906 112.25216,134.487286 C81.597527,141.788406 59.3527778,168.916206 59.3527778,199 Z" id="customer--service_2_-path" stroke="#000000" stroke-width="5" fill="#000000" fill-rule="nonzero"></path>
        <path d="M141.495833,116.494071 C138.003356,116.494071 135.162809,113.640975 135.162809,110.13307 C135.162809,106.625165 138.003356,103.772069 141.495833,103.772069 C144.387604,103.772069 146.832338,105.727141 147.586713,108.388472 C156.266682,107.65415 163.102623,100.324967 163.102623,91.4242424 L163.102623,82.0698287 L166.460058,82.0698287 L166.460058,91.4242424 C166.460058,102.172464 158.133993,111.007708 147.619309,111.765415 C146.897531,114.482872 144.429514,116.494071 141.495833,116.494071 Z" id="customer--service_2_-path" stroke="#000000" stroke-width="4" fill="#000000" fill-rule="nonzero"></path>
        <path d="M141.495833,107.139657 C139.852041,107.139657 138.515586,108.482016 138.515586,110.13307 C138.515586,111.784124 139.852041,113.126482 141.495833,113.126482 C143.139626,113.126482 144.47608,111.784124 144.47608,110.13307 C144.47608,108.482016 143.139626,107.139657 141.495833,107.139657 Z" id="customer--service_2_-path" stroke="#FFFFFF" stroke-width="2" fill="#000000" fill-rule="nonzero"></path>
    </g>
</svg>