<?xml version="1.0" encoding="UTF-8"?>
<svg width="256px" height="256px" viewBox="0 0 256 256" version="1.1" xmlns="http://www.w3.org/2000/svg" xmlns:xlink="http://www.w3.org/1999/xlink">
    <title>chat</title>
    <g id="chat" stroke="none" stroke-width="1" fill="none" fill-rule="evenodd">
        <path d="M104.4705,49 L104.4705,77.1961401 L113.882333,77.1961401 L113.882333,58.4049526 L198.588167,58.4049526 L198.588167,124.164584 L179.75525,124.164584 L179.75525,145.774329 L158.117667,124.164584 L151.52,124.164584 L151.52,86.5916922 L48,86.5916922 L48,171.151745 L76.2258333,171.151745 L76.2258333,206 L111.058833,171.151745 L151.52,171.151745 L151.52,133.560136 L154.249417,133.560136 L189.1765,168.427025 L189.1765,133.560136 L208,133.560136 L208,49 L104.4705,49 L104.4705,49 Z M76,124 L123,124 L123,115 L76,115 L76,124 L76,124 Z M76,142 L104,142 L104,133 L76,133 L76,142 L76,142 Z M57,95 L142,95 L142,161.246024 L106.961155,161.246024 L85.3239397,183 L85.3239397,161.246024 L57,161.246024 L57,95 L57,95 Z" id="Shape" fill="#222222" fill-rule="nonzero"></path>
    </g>
</svg>