<?xml version="1.0" encoding="UTF-8"?>
<svg width="256px" height="256px" viewBox="0 0 256 256" version="1.1" xmlns="http://www.w3.org/2000/svg" xmlns:xlink="http://www.w3.org/1999/xlink">
    <title>cloud</title>
    <g id="cloud" stroke="none" stroke-width="1" fill="none" fill-rule="evenodd">
        <path d="M179.132558,181.318043 L81.0906977,181.318043 C62.1790698,181.318043 47,165.890136 47,147.227345 C47,130.057578 59.6906977,115.873857 76.1139535,113.385485 C78.6023256,91.4878103 97.2651163,74.3180428 119.660465,74.3180428 C133.844186,74.3180428 147.032558,81.2854847 155.244186,92.4831591 C156.239535,92.4831591 157.234884,92.2343219 158.230233,92.2343219 C172.413953,92.2343219 183.860465,103.680834 183.860465,117.864554 C183.860465,118.611066 183.860465,119.357578 183.860465,119.855252 C198.54186,122.094787 209.739535,134.785485 209.739535,149.964554 C209.739535,167.383159 196.053488,181.318043 179.132558,181.318043 Z" id="Path" stroke="#006699" stroke-width="10" fill="#0699" fill-rule="nonzero"></path>
    </g>
</svg>