<?xml version="1.0" encoding="UTF-8"?>
<svg width="256px" height="256px" viewBox="0 0 256 256" version="1.1" xmlns="http://www.w3.org/2000/svg" xmlns:xlink="http://www.w3.org/1999/xlink">
    <title>colleague</title>
    <g id="colleague" stroke="none" stroke-width="1" fill="none" fill-rule="evenodd">
        <g id="person" transform="translate(59.000000, 41.000000)" stroke="#000000" stroke-width="7">
            <circle id="Oval" cx="70" cy="34" r="34"></circle>
            <path d="M139,153 C139,114.892352 107.88379,84 69.5,84 L69.5,84 C31.1162099,84 0,114.892352 0,153 L139,153 Z" id="Path"></path>
        </g>
        <g id="amex" transform="translate(129.000000, 117.000000)" fill-rule="nonzero">
            <path d="M5.37492631,0 L80.6250737,0 C83.5921155,0 86,2.41508912 86,5.39366947 L86,56.6089913 C86,59.5849109 83.5921155,62 80.6250737,62 L5.37492631,62 C2.40523163,62 0,59.5849109 0,56.6092869 L0,5.39366947 C0,2.41508912 2.40788445,0 5.37492631,0 Z" id="Path" fill="#006699"></path>
            <path d="M14.4643587,22 L6,40.975596 L16.1330231,40.975596 L17.3892218,37.9500955 L20.2606172,37.9500955 L21.5168159,40.975596 L32.670427,40.975596 L32.670427,38.6664422 L33.6642812,40.975596 L39.4338057,40.975596 L40.4276599,38.6176342 L40.4276599,40.975596 L63.624151,40.975596 L66.4447226,38.0286645 L69.0857952,40.975596 L81,41 L72.5089074,31.5407725 L81,22 L69.2705822,22 L66.5249242,24.8924689 L63.966991,22 L38.7322616,22 L36.5653482,26.8977632 L34.347611,22 L24.23574,22 L24.23574,24.2305849 L23.1108604,22 C23.1108604,22 14.4643587,22 14.4643587,22 Z M16.4250394,24.6945584 L21.3643446,24.6945584 L26.9787539,37.5620125 L26.9787539,24.6945584 L32.3895744,24.6945584 L36.7260453,33.9204599 L40.7226139,24.6945584 L46.1064067,24.6945584 L46.1064067,38.3107985 L42.8304778,38.3107985 L42.8037439,27.6411923 L38.0277797,38.3107985 L35.0973348,38.3107985 L30.2946368,27.6411923 L30.2946368,38.3107985 L23.555348,38.3107985 L22.2777034,35.2582156 L15.3750734,35.2582156 L14.1000729,38.30812 L10.4892359,38.30812 C10.4892359,38.30812 16.4250394,24.6945584 16.4250394,24.6945584 Z M49.1035394,24.6945584 L62.424064,24.6945584 L66.4981903,29.1527521 L70.7036358,24.6945584 L74.7777621,24.6945584 L68.5875461,31.538094 L74.7777621,38.3027631 L70.5188489,38.3027631 L66.4447226,33.7927853 L62.2178312,38.3027631 L49.1035394,38.3027631 L49.1035394,24.6945584 L49.1035394,24.6945584 Z M18.8278573,26.9983553 L16.5537145,32.4362802 L21.099356,32.4362802 L18.8278573,26.9983553 Z M52.3929822,27.5138154 L52.3929822,29.9994518 L59.659898,29.9994518 L59.659898,32.7699007 L52.3929822,32.7699007 L52.3929822,35.4835062 L60.5438788,35.4835062 L64.3312769,31.4866076 L60.7045759,27.5114345 L52.3929822,27.5114345 L52.3929822,27.5138154 Z" id="Shape" fill="#FFFFFF"></path>
        </g>
    </g>
</svg>