<?xml version="1.0" encoding="UTF-8"?>
<svg width="256px" height="256px" viewBox="0 0 256 256" version="1.1" xmlns="http://www.w3.org/2000/svg" xmlns:xlink="http://www.w3.org/1999/xlink">
    <title>A6</title>
    <defs>
        <filter x="-7.2%" y="-9.4%" width="114.4%" height="118.8%" filterUnits="objectBoundingBox" id="filter-1">
            <feOffset dx="0" dy="2" in="SourceAlpha" result="shadowOffsetOuter1"></feOffset>
            <feGaussianBlur stdDeviation="2" in="shadowOffsetOuter1" result="shadowBlurOuter1"></feGaussianBlur>
            <feColorMatrix values="0 0 0 0 0   0 0 0 0 0   0 0 0 0 0  0 0 0 0.5 0" type="matrix" in="shadowBlurOuter1" result="shadowMatrixOuter1"></feColorMatrix>
            <feMerge>
                <feMergeNode in="shadowMatrixOuter1"></feMergeNode>
                <feMergeNode in="SourceGraphic"></feMergeNode>
            </feMerge>
        </filter>
    </defs>
    <g id="A6" stroke="none" stroke-width="1" fill="none" fill-rule="evenodd">
        <g id="firewall" filter="url(#filter-1)" transform="translate(44.000000, 37.000000)" fill="#000000" fill-rule="nonzero">
            <path d="M167,33.9359568 L167,33.9359568 C167,28.6276002 162.303787,24.3088609 156.530882,24.3088609 L130.448273,24.3088609 C127.780192,24.3088609 125.344019,25.2327838 123.492997,26.7494571 C121.642301,25.2330837 119.205802,24.3088609 116.537722,24.3088609 L103.803018,24.3088609 C102.699907,17.8144034 99.8706975,12.8603172 97.1390134,9.41060534 C92.3390775,3.34811172 86.8160199,0.516648217 86.5831336,0.399058039 C85.2552905,-0.271685936 83.6094305,-0.0839016212 82.5004482,0.864619152 C81.3911399,1.81313993 81.067578,3.30851502 81.698067,4.57530921 C84.6234968,10.4530183 83.7108697,17.0674658 79.0025879,24.308561 L50.4606475,24.308561 C47.7925668,24.308561 45.3563938,25.2324838 43.5056982,26.7491571 C41.6546765,25.2327838 39.2181773,24.308561 36.5497704,24.308561 L10.4681397,24.308561 C4.69588731,24.308561 0,28.6273002 0,33.9359568 L0,45.4501951 C0,47.9039901 1.00460741,50.144803 2.65405536,51.8468608 C1.00460741,53.5489186 0,55.7897315 0,58.2435265 L0,69.7571648 C0,72.2109599 1.00460741,74.4517727 2.65372919,76.1535305 C1.00460741,77.8555884 0,80.0964012 0,82.5501963 L0,94.0644345 C0,96.5182296 1.00460741,98.7593424 2.65405536,100.4614 C1.00460741,102.163758 0,104.404571 0,106.858366 L0,118.372004 C0,123.680661 4.69588731,128 10.4681397,128 L76.5442353,128 C79.130447,128 81.576079,127.135772 83.4978799,125.557604 C85.3492278,127.075177 87.7863793,128 90.4551124,128 L156.531208,128 C162.303787,128 167,123.680961 167,118.372004 L167,106.858366 C167,104.404571 165.995393,102.163758 164.345945,100.4617 C165.99474,98.7593424 167,96.5185295 167,94.0647345 L167,82.5504962 C167,80.0967012 165.995393,77.8558884 164.345945,76.1541305 C165.99474,74.4520727 167,72.2112598 167,69.7574648 L167,58.2435265 C167,55.7897315 165.995393,53.5486187 164.345945,51.8465608 C165.99474,50.144503 167,47.9033902 167,45.4498951 L167,33.9359568 Z M103.442925,38.0972093 C103.97491,35.5060257 104.23389,33.0651296 104.277271,30.7703212 L116.538374,30.7703212 C118.436364,30.7703212 119.980785,32.1901026 119.980785,33.9362568 L119.980785,45.4504951 C119.980785,47.1960493 118.436691,48.6164306 116.538374,48.6164306 L101.461435,48.6164306 C101.984287,45.4927915 102.643153,41.9932838 103.442925,38.0972093 Z M100.507058,55.077291 L105.991953,55.077291 C103.484349,56.537269 101.545261,58.1919308 100.050092,59.8474925 C100.135222,58.4424099 100.289175,56.848343 100.507058,55.077291 Z M47.0195409,33.9359568 C47.0192148,32.1901026 48.5629833,30.7700213 50.4612999,30.7700213 L73.9430196,30.7700213 C73.7711274,30.9590055 73.6011922,31.1476897 73.4247335,31.3372739 C68.5142256,36.6108334 63.423671,42.4399465 59.0033984,48.6158307 L50.4619522,48.6158307 C48.5639618,48.6158307 47.0195409,47.1960493 47.0195409,45.4498951 L47.0195409,33.9359568 Z M7.02572847,33.9359568 C7.02572847,32.1904026 8.56982311,30.7700213 10.4681397,30.7700213 L36.5507489,30.7700213 C38.4490655,30.7700213 39.9938125,32.1898027 39.9938125,33.9359568 L39.9938125,45.4501951 C39.9938125,47.1957493 38.4497179,48.6161306 36.5507489,48.6161306 L10.4681397,48.6161306 C8.57014928,48.6161306 7.02572847,47.1963492 7.02572847,45.4501951 L7.02572847,33.9359568 Z M7.02572847,58.2435265 C7.02572847,56.4976723 8.56982311,55.076991 10.4681397,55.076991 L36.5507489,55.076991 L50.4616261,55.076991 L54.7292505,55.076991 C51.2398706,60.8515087 48.5401513,66.8513075 47.2534058,72.9228004 L36.5507489,72.9228004 L10.4681397,72.9228004 C8.57014928,72.9228004 7.02572847,71.503019 7.02572847,69.7568648 L7.02572847,58.2435265 Z M51.1518044,97.23097 L50.4612999,97.23097 C48.5633094,97.23097 47.019541,95.8108886 47.019541,94.0644345 L47.019541,86.6709521 C47.0645526,86.8998329 47.1092381,87.1284139 47.1594684,87.3572947 C47.9093361,90.76681 49.2489214,94.0653344 51.1518044,97.23097 Z M7.02572847,82.5501963 C7.02572847,80.8046421 8.56982311,79.3842607 10.4681397,79.3842607 L36.5507489,79.3842607 C38.4490655,79.3842607 39.9938125,80.8043421 39.9938125,82.5501963 L39.9938125,94.0644345 C39.9938125,95.8102887 38.4497179,97.23097 36.5507489,97.23097 L10.4681397,97.23097 C8.57014928,97.23097 7.02572847,95.8105887 7.02572847,94.0644345 L7.02572847,82.5501963 Z M76.5439091,121.53854 L10.4681397,121.53854 C8.57014928,121.53854 7.02572847,120.118458 7.02572847,118.372004 L7.02572847,106.858366 C7.02572847,105.112812 8.56982311,103.69243 10.4681397,103.69243 L36.5507489,103.69243 L50.4616261,103.69243 L55.9974043,103.69243 C56.5036221,104.249484 57.0241914,104.802638 57.570202,105.348892 C62.8861408,110.668948 70.2380406,115.617334 79.4377003,120.081561 C78.8241722,120.956588 77.7575923,121.53854 76.5439091,121.53854 Z M54.0455956,86.0758018 C51.7082525,75.4524891 56.5385224,64.2037287 63.7534302,53.7397027 C63.8473675,53.6209126 63.9344552,53.4976229 64.0094746,53.3674338 C68.4248546,47.0238636 73.6993697,40.9763688 78.760895,35.5402228 C80.7254244,33.430799 82.3879192,31.3915693 83.7901293,29.4231338 C83.8563421,29.3388408 83.9176623,29.2518481 83.9744161,29.1618556 C88.6044168,22.5762057 90.2917006,16.801388 90.3735696,11.9399941 C94.7165396,16.8466842 98.9854688,24.9775051 96.5388583,36.8982094 C95.3489856,42.6940253 94.4839795,47.4948243 93.9011115,51.4985899 C93.9004592,51.5057893 93.8991545,51.5123887 93.8978498,51.5195881 C91.9541954,64.8840718 93.1669001,69.3401996 96.0192675,72.1236671 C96.9524435,73.0343911 98.3712883,73.3817621 99.6652096,72.9926946 C100.958805,72.6036271 101.889045,71.5774128 102.057349,70.3355165 C102.103013,70.042441 103.106316,64.1731312 110.283388,60.2458593 C110.425925,64.8012788 111.238744,71.5234173 114.315517,77.405026 C114.371945,77.5289157 114.439462,77.6471058 114.511546,77.7625961 C114.866094,78.4156416 115.240212,79.0608877 115.654124,79.6875354 C117.171472,81.9838436 120.381323,88.0622359 117.423277,94.8929653 C113.817453,103.21907 102.226959,110.132592 83.8693889,114.923492 C66.4847881,106.714678 56.452087,97.0125883 54.0455956,86.0758018 Z M159.973945,118.372004 C159.973945,120.117858 158.429851,121.53854 156.530882,121.53854 L90.4547862,121.53854 C89.4749678,121.53854 88.5920223,121.158171 87.9644688,120.552222 C103.124908,116.351073 113.804733,110.701345 119.860428,103.69273 L130.448273,103.69273 L156.530882,103.69273 C158.429198,103.69273 159.973945,105.112812 159.973945,106.858666 L159.973945,118.372004 Z M159.973945,94.0647345 C159.973945,95.8105887 158.429851,97.23127 156.530882,97.23127 L130.448273,97.23127 C128.550282,97.23127 127.005861,95.8111886 127.005861,94.0647345 L127.005861,82.5501963 C127.005861,80.8046421 128.549956,79.3842607 130.448273,79.3842607 L156.530882,79.3842607 C158.429198,79.3842607 159.973945,80.8046421 159.973945,82.5501963 L159.973945,94.0647345 Z M159.973945,69.7571648 C159.973945,71.502719 158.429851,72.9231004 156.530882,72.9231004 L130.448273,72.9231004 L119.849664,72.9231004 C116.509671,65.0544576 117.39653,55.6310447 117.407294,55.5257535 C117.422624,55.3754661 117.424255,55.2260785 117.416753,55.077291 L130.448273,55.077291 L156.530882,55.077291 C158.429198,55.077291 159.973945,56.4979723 159.973945,58.2438265 L159.973945,69.7571648 Z M159.973945,45.4501951 C159.973945,47.1957493 158.429851,48.6161306 156.530882,48.6161306 L130.448273,48.6161306 C128.550282,48.6161306 127.005861,47.1963492 127.005861,45.4501951 L127.005861,33.9359568 C127.005861,32.1901026 128.54963,30.7700213 130.448273,30.7700213 L156.530882,30.7700213 C158.429198,30.7700213 159.973945,32.1898027 159.973945,33.9359568 L159.973945,45.4501951 Z" id="Shape"></path>
            <path d="M75.2373913,54.5626746 C73.4274024,53.528144 70.9944101,53.9606453 69.8008668,55.5277526 L69.6343682,55.7465288 C68.453212,57.320897 68.9691026,59.4265789 70.7860137,60.4500603 C71.4469074,60.8219483 72.1875892,61 72.9206201,61 C74.2048815,61 75.4629112,60.4547957 76.2145229,59.4527815 L76.3504178,59.2744142 C77.5443255,57.7060442 77.0459228,55.5972053 75.2373913,54.5626746 Z" id="Path"></path>
            <path d="M67.0911958,81.5547268 C66.901033,77.654693 68.2965453,72.9618587 71.2399631,67.606531 C72.107355,66.0283337 71.3916992,64.1145955 69.641479,63.3324564 C67.8915873,62.5500212 65.768924,63.1959301 64.9015321,64.7741274 C61.4211262,71.1061664 59.7799458,76.8459002 60.0236432,81.8351833 C60.3235027,87.9921961 63.6984815,93.8163334 70.053991,99.146192 C70.7351613,99.7177666 71.5992689,100 72.4620627,100 C73.4102492,100 74.3558082,99.6582399 75.0530717,98.9824196 C76.3835543,97.692675 76.3021029,95.6740988 74.8711198,94.4746807 C69.9242599,90.3258787 67.3066479,85.9789507 67.0911958,81.5547268 Z" id="Path"></path>
        </g>
    </g>
</svg>