<?xml version="1.0" encoding="UTF-8"?>
<svg width="256px" height="256px" viewBox="0 0 256 256" version="1.1" xmlns="http://www.w3.org/2000/svg" xmlns:xlink="http://www.w3.org/1999/xlink">
    <title>gtm</title>
    <g id="gtm" stroke="none" stroke-width="1" fill="none" fill-rule="evenodd">
        <rect id="Rectangle" stroke="#424242" stroke-width="5" fill="#FFFFFF" x="10.5" y="82.5" width="235" height="43" rx="8"></rect>
        <rect id="Rectangle" stroke="#979797" fill="#3AFF00" x="26.1588629" y="96.5" width="11.8428094" height="13.2222222"></rect>
        <rect id="Rectangle" stroke="#979797" fill="#444444" x="47.0284281" y="96.5" width="11.8428094" height="13.2222222"></rect>
        <rect id="Rectangle" stroke="#979797" fill="#444444" x="67.8979933" y="96.5" width="11.8428094" height="13.2222222"></rect>
        <rect id="Rectangle" stroke="#979797" fill="#444444" x="177.864548" y="96.5" width="50.3712375" height="13.2222222"></rect>
        <path d="M140.441472,103.111111 C140.441472,111.45681 134.332236,118.222222 126.795987,118.222222 M140.441472,104 C140.441472,95.6543684 134.332236,88.8888889 126.795987,88.8888889 M140.441472,104 L113.953177,104 M127.598662,118.222222 C120.062473,118.222222 113.953177,111.45681 113.953177,103.111111 M127.598662,118.222222 C127.598662,118.222222 133.217391,113.333333 133.217391,103.555556 C133.217391,93.7777778 127.598662,88.8888889 127.598662,88.8888889 M127.598662,118.222222 C127.598662,118.222222 121.979933,113.333333 121.979933,103.555556 C121.979933,93.7777778 127.598662,88.8888889 127.598662,88.8888889 M113.953177,104 C113.953177,95.6543684 120.062473,88.8888889 127.598662,88.8888889" id="Shape" stroke="#808080" stroke-width="3"></path>
    </g>
</svg>