<?xml version="1.0" encoding="UTF-8"?>
<svg width="256px" height="256px" viewBox="0 0 256 256" version="1.1" xmlns="http://www.w3.org/2000/svg" xmlns:xlink="http://www.w3.org/1999/xlink">
    <title>internet</title>
    <g id="internet" stroke="none" stroke-width="1" fill="none" fill-rule="evenodd">
        <path d="M136.331675,187.413774 C134.912401,188.569166 133.48594,189.476589 132.050494,190.162097 C131.075361,190.266316 130.093938,190.342683 129.107425,190.400483 L129.107425,178.960065 C126.748058,177.029021 124.374915,175.023706 121.994285,172.963287 L121.994285,190.402579 C121.00807,190.342683 120.026349,190.266017 119.053911,190.161798 C117.618165,189.476289 116.189607,188.568567 114.770334,187.413474 C110.144142,183.648417 105.814144,177.292863 102.49372,169.112879 L117.613673,169.112879 C115.036579,166.808982 112.457088,164.435607 109.877897,162.00024 L100.007071,162.00024 C98.8282862,158.080052 97.8795081,153.8523 97.1568435,149.418206 C94.3482447,146.512356 91.6205077,143.599618 88.971536,140.691672 C89.5666187,148.262814 90.786733,155.445231 92.6043259,162.00024 L74.4352854,162.00024 C69.3481816,153.778328 66.1945726,144.248291 65.597094,134.009684 L83.0392771,134.009684 C80.9784999,131.629421 78.973128,129.256046 77.0444251,126.896746 L65.5973935,126.896746 C65.8426742,122.701337 66.5398823,118.635303 67.5979736,114.719908 C65.1829021,111.425333 62.9181736,108.179275 60.8298435,105 C57.7247516,112.886195 56,121.467182 56,130.455461 C56.0020964,168.867305 87.1356744,199.997604 125.548908,200 C134.535046,200 143.116277,198.275297 151,195.172689 C146.765239,192.38723 142.407389,189.29151 137.975864,185.93674 C137.431395,186.462028 136.885129,186.962458 136.331675,187.413774 Z M82.539317,172.925199 C81.3022594,171.671564 80.1263399,170.355972 79,169 L94.5607062,169 C95.7198963,172.20298 96.9946709,175.253378 98.4218345,178.055947 C100.103284,181.34955 101.966018,184.345081 104,187 C95.8774562,183.870691 88.5828619,179.045107 82.539317,172.925199 Z" id="Shape" fill="#000000" fill-rule="nonzero"></path>
        <path d="M75,81.9834346 C76.5301791,84.7239725 78.2700338,87.5791521 80.1851712,90.5200112 C81.1415332,89.4097976 82.1117729,88.3134618 83.1495916,87.2756535 C89.1556653,81.274165 96.4074231,76.5415782 104.482195,73.4791386 C100.729153,78.2980084 97.5734606,84.2759652 95.0615775,91.1149408 L80.5656042,91.1149408 C82.100007,93.4518196 83.7538796,95.8451141 85.5055003,98.2800417 L92.7666105,98.2800417 C92.1065096,100.656743 91.5396313,103.129382 91.0288676,105.657531 C92.9485304,108.125343 94.9568905,110.62091 97.0467073,113.135483 C97.8003326,107.868606 98.858968,102.865405 100.240112,98.27974 L122.354096,98.27974 L122.354096,126.47675 L108.741777,126.47675 C110.955589,128.872156 113.222499,131.263037 115.543411,133.642153 L122.354096,133.642153 L122.354096,140.453071 C124.733235,142.771547 127.12414,145.043261 129.51957,147.254336 L129.51957,133.642153 L155.993298,133.642153 C155.69945,143.928221 154.139102,153.528852 151.63627,161.839163 L146.390459,161.839163 C149.833362,164.612283 153.231614,167.222491 156.555651,169.645653 C156.637409,169.426326 156.732744,169.225703 156.814502,169.004264 L172.234556,169.004264 C171.114979,170.331391 169.951054,171.618997 168.724074,172.845964 C167.688368,173.881359 166.601373,174.865769 165.491149,175.821819 C168.427813,177.734524 171.277893,179.469836 174.011821,181 C187.542381,168.227717 196,150.136969 196,130.061714 C195.997285,91.3668507 164.632535,60.0024135 125.93457,60 C105.858813,60.0024135 87.7727116,68.4575342 75,81.9834346 Z M177.170344,162 L159,162 C161.345719,153.534152 162.766015,144.061114 163.041278,134 L186,134 C185.403098,144.242061 182.252535,153.775015 177.170344,162 Z M177.160468,98 C182.248154,106.224685 185.400639,115.760336 186,126 L163.004225,126 C162.726399,115.947873 161.347149,106.460755 159,98 L177.160468,98 Z M168.462126,87.0767294 C169.69953,88.3305359 170.873345,89.643842 172,91 L156.439806,91 C155.280292,87.7990477 154.002726,84.7482316 152.577293,81.9452789 C150.895373,78.65369 149.032421,75.6577492 147,73 C155.122383,76.1294295 162.417194,80.9584497 168.462126,87.0767294 Z M129,70 C130.014039,70.059383 131.021319,70.1347195 132.02092,70.2375318 C133.493595,70.911425 134.953983,71.8068964 136.41007,72.9463992 C141.155255,76.6582772 145.59417,82.9304174 149,91 L129,91 L129,70 Z M129,98 L151.567325,98 C154.117673,106.25015 155.698114,115.795087 156,126 L129,126 L129,98 Z M115.576098,72.9483894 C117.034656,71.8087354 118.498138,70.9136728 119.973623,70.2375018 C120.975132,70.1347025 121.984334,70.0593754 123,70 L123,91 L103,91 C103.806685,89.0881699 104.653996,87.2431003 105.569942,85.5439584 C108.506448,80.0808271 111.961559,75.7827543 115.576098,72.9483894 Z" id="Shape" fill="#000000" fill-rule="nonzero"></path>
        <path d="M203.292041,178.434557 C201.836191,174.509318 199.813926,170.26621 197.337861,165.767595 C195.645576,169.142767 193.726543,172.388975 191.59166,175.473826 C192.675449,177.713749 193.583652,179.820167 194.302041,181.762806 C195.764854,185.6832 196.424814,188.952719 196.413008,191.139058 C196.413008,192.175919 196.274961,192.955154 196.094531,193.479791 C195.912285,194.006244 195.720352,194.280218 195.500264,194.507268 C195.277754,194.722511 195.006201,194.912022 194.477324,195.096992 C193.95541,195.274696 193.176172,195.412743 192.139004,195.412743 C190.074658,195.422127 187.041562,194.839366 183.411172,193.540338 C179.774121,192.250694 175.530693,190.277479 170.875547,187.689111 C154.915391,178.818423 134.185352,162.710898 113.745332,142.257032 C93.2913867,121.817395 77.1837988,101.087134 68.3106543,85.1246187 C65.7222754,80.4691876 63.7514746,76.2281983 62.4594043,72.590859 C61.162793,68.9607853 60.5776074,65.9277015 60.5869922,63.8630611 C60.5869922,62.823778 60.7274609,62.0445428 60.9054688,61.5247499 C61.0880176,60.995875 61.277832,60.7267452 61.4951953,60.5021172 C61.724668,60.279911 61.995918,60.0876754 62.5250977,59.9054301 C63.0470117,59.7274229 63.82625,59.5869547 64.867959,59.5869547 C67.051582,59.5754509 70.321416,60.2354092 74.2348633,61.693675 C76.1844727,62.4144828 78.3005859,63.3272233 80.5523242,64.4131273 C83.6371875,62.2785556 86.8761426,60.3595298 90.25375,58.6672513 C85.7457324,56.1836282 81.4932227,54.1592513 77.5610059,52.7034074 C72.9594434,51.0111289 68.781709,50.0139257 64.8682617,50 C63.0070508,50.0027246 61.1906445,50.2367374 59.4493164,50.8243425 C57.712832,51.409223 56.0553613,52.378272 54.7145508,53.7263429 C53.3710156,55.0626072 52.4043848,56.7176495 51.8237402,58.452008 C51.2364355,60.1909075 51.0024219,62.0048847 51,63.8633638 C51.0118066,67.5615525 51.9033594,71.4910293 53.4270215,75.8001336 C54.9576465,80.1043941 57.1506543,84.7761727 59.9336914,89.7848934 C69.468916,106.896282 86.0027539,128.061873 106.966807,149.035228 C127.940547,169.999502 149.106221,186.532973 166.215254,196.068463 C171.226416,198.851186 175.898213,201.044185 180.20249,202.575107 C184.511309,204.096644 188.441104,204.988193 192.139004,205 C193.99749,205 195.811475,204.763565 197.550684,204.178382 C199.282627,203.595923 200.937373,202.631416 202.276064,201.287886 C203.624443,199.944356 204.593193,198.287194 205.17626,196.555258 C205.763564,194.813936 205.997881,192.997537 206,191.139361 C205.986074,187.221085 204.988867,183.040945 203.292041,178.434557 Z" id="Path" fill="#000000" fill-rule="nonzero"></path>
    </g>
</svg>