<?xml version="1.0" encoding="UTF-8"?>
<svg width="256px" height="256px" viewBox="0 0 256 256" version="1.1" xmlns="http://www.w3.org/2000/svg" xmlns:xlink="http://www.w3.org/1999/xlink">
    <title>merchant</title>
    <g id="merchant" stroke="#069" stroke-width="1" fill="#0699" fill-rule="evenodd">
        <g id="store" transform="translate(60.000000, 60.000000)" stroke="#069" stroke-width="6">
            <path d="M126,54.0288416 L126,127.805728 C125.939829,130.039596 124.997112,132.157888 123.379424,133.694179 C121.761737,135.230471 119.601726,136.05879 117.375,135.99675 L19.625,135.99675 C17.3982744,136.05879 15.238263,135.230471 13.6205755,133.694179 C12.0028881,132.157888 11.0601711,130.039596 11,127.805728 L11,54" id="Path"></path>
            <polyline id="Path" points="52 136 52 87 85 87 85 136"></polyline>
            <path d="M0.161294501,31.1054219 C0.161294501,31.1054219 -3.0066928,53.4966978 18.73722,56.9015568 C25.173637,57.8585531 31.6837692,55.7200182 36.3051496,51.1306094 C40.4099596,55.5700929 46.1962758,58.0646789 52.236084,57.9987245 C58.2758922,57.9327702 64.0065657,55.3124193 68.0138225,50.7843525 C71.6926937,54.9720515 76.8612861,57.5509129 82.4137648,57.9691821 C88.5324306,57.474053 94.4036103,55.3304804 99.4056967,51.7654136 C102.879425,55.5535429 107.724009,57.7881669 112.855243,57.9691821 C119.638395,58 126.090458,55.0345859 130.49165,49.8632049 C134.892843,44.691824 136.795895,37.8400757 135.693551,31.1342766 L122.100006,1.87557325 C121.678191,0.744447628 120.598013,-0.00390700549 119.392817,0 L16.1740303,0 C14.9614686,0 13.8791121,0.761932058 13.4668412,1.90442799 L0.161294501,31.1054219 Z" id="Path"></path>
            <line x1="0" y1="31.5" x2="136" y2="31.5" id="Path"></line>
            <line x1="36.5" y1="31" x2="36.5" y2="0" id="Path"></line>
            <line x1="68.5" y1="31" x2="68.5" y2="0" id="Path"></line>
            <line x1="100.5" y1="31" x2="100.5" y2="0" id="Path"></line>
        </g>
    </g>
</svg>