<?xml version="1.0" encoding="UTF-8"?>
<svg width="256px" height="256px" viewBox="0 0 256 256" version="1.1" xmlns="http://www.w3.org/2000/svg" xmlns:xlink="http://www.w3.org/1999/xlink">
    <title>mobile</title>
    <g id="mobile" stroke="none" stroke-width="1" fill="none" fill-rule="evenodd">
        <path d="M157.485714,55 L98.5142857,55 C91.0544,55.0098983 85.0098286,61.0973559 85,68.6101695 L85,187.389831 C85.0098286,194.902644 91.0544,200.990102 98.5142857,201 L157.485714,201 C164.9456,200.990102 170.990171,194.902644 171,187.389831 L171,68.6101695 C170.990171,61.0973559 164.9456,55.0098983 157.485714,55 L157.485714,55 Z M164,187.820755 C163.995103,191.231698 161.257931,193.995057 157.87931,194 L99.1206897,194 C95.742069,193.995057 93.0048966,191.231698 93,187.820755 L93,69.1792453 C93.0048966,65.7683019 95.742069,63.0049434 99.1206897,63 L157.87931,63 C161.257931,63.0049434 163.995103,65.7683019 164,69.1792453 L164,69.1792453 L164,187.820755 Z M138.318182,176 L118.681818,176 C116.649455,176 115,177.568 115,179.5 C115,181.432 116.649455,183 118.681818,183 L118.681818,183 L138.318182,183 C140.350545,183 142,181.432 142,179.5 C142,177.568 140.350545,176 138.318182,176 L138.318182,176 Z" id="Shape" fill="#222222" fill-rule="nonzero"></path>
    </g>
</svg>