<?xml version="1.0" encoding="UTF-8"?>
<svg width="256px" height="256px" viewBox="0 0 256 256" version="1.1" xmlns="http://www.w3.org/2000/svg" xmlns:xlink="http://www.w3.org/1999/xlink">
    <title>third_party</title>
    <g id="third_party" stroke="none" stroke-width="1" fill="none" fill-rule="evenodd">
        <path d="M66.7408955,93.1642935 L94.6764501,93.1642935 C91.9010515,103.507119 90.3136272,115.24425 90.3136272,127.709748 L94.0487431,127.709748 C94.0487431,115.171413 95.6517304,103.397864 98.4323167,93.1642935 L126.627254,93.1642935 L126.627254,127.709748 L130.36237,127.709748 L130.36237,93.1642935 L158.557308,93.1642935 C161.337894,103.397864 162.940882,115.171413 162.940882,127.709748 L166.681185,127.709748 C166.681185,115.24425 165.093761,103.507119 162.32355,93.1642935 L190.253917,93.1642935 C195.970719,103.397864 199.259696,115.171413 199.259696,127.709748 L203,127.709748 C203,86.5153341 169.581088,53 128.505188,53 C87.4292877,53 54,86.5153341 54,127.709748 L57.7351159,127.709748 C57.7351159,115.171413 61.024093,103.397864 66.7408955,93.1642935 Z M99.5372885,89.4184009 C105.352657,70.8138007 115.261089,58.2026287 126.627254,56.9383899 L126.627254,89.4184009 L99.5372885,89.4184009 Z M130.36237,89.4184009 L130.36237,56.9383899 C141.728536,58.2026287 151.631781,70.8138007 157.452336,89.4184009 L130.36237,89.4184009 Z M187.976534,89.4184009 L161.218578,89.4184009 C156.876506,75.2724535 150.231112,64.1700438 142.278428,58.1193866 C161.415709,61.9277108 177.756841,73.5087623 187.976534,89.4184009 Z M114.711197,58.1193866 C106.7637,64.1700438 100.113119,75.2724535 95.7762342,89.4184009 L69.013091,89.4184009 C79.2327832,73.5087623 95.5739155,61.9277108 114.711197,58.1193866 Z M162.940882,143.317634 L162.940882,146.127054 L144.057795,141.444688 L129.796915,141.444688 C126.829573,141.444688 123.965984,142.526835 121.740478,144.488226 L119.281526,146.647317 L94.0487431,146.647317 L94.0487431,143.317634 C94.0487431,142.282311 93.2135297,141.444688 92.1811852,141.444688 L55.867558,141.444688 L55.867558,145.195783 L90.3136272,145.195783 L90.3136272,188.268346 L55.867558,188.268346 L55.867558,192.019441 L92.1811852,192.019441 C93.2135297,192.019441 94.0487431,191.181818 94.0487431,190.146495 L94.0487431,186.816813 L98.9977717,186.816813 L110.140868,202.643209 C111.531161,204.198795 113.460971,205 115.406344,205 C116.817387,205 118.233619,204.578587 119.463094,203.709748 L122.798761,201.35816 C122.995892,201.430997 123.151521,201.57667 123.359028,201.633899 C123.965984,201.789978 124.578128,201.87322 125.185085,201.87322 C126.409373,201.87322 127.618098,201.550657 128.702319,200.915936 L133.018453,198.418675 C133.806977,198.710022 134.62144,198.912924 135.467029,198.912924 C136.660191,198.912924 137.874103,198.605969 138.984263,197.966046 L143.305585,195.463582 C144.094109,195.754929 144.908572,195.957831 145.754161,195.957831 C146.947323,195.957831 148.166423,195.650876 149.276582,195.010953 C152.192048,193.320099 153.312583,189.86035 152.352865,186.81161 L162.946069,186.81161 L162.946069,190.141292 C162.946069,191.176616 163.781283,192.014239 164.813627,192.014239 L201.127254,192.014239 L201.127254,188.268346 L166.681185,188.268346 L166.681185,145.190581 L201.122067,145.190581 L201.122067,141.444688 L164.80844,141.444688 C163.776095,141.444688 162.940882,142.282311 162.940882,143.317634 Z M147.403837,191.769715 C145.8216,192.685378 143.777662,192.139102 142.864633,190.5523 L135.083142,177.035871 L131.846041,178.903614 L139.990669,193.054765 L137.116705,194.714403 C135.529281,195.645674 133.495718,195.088992 132.577502,193.502191 L127.389841,184.491238 L127.389841,184.491238 L126.092925,182.238499 L122.861012,184.106243 L124.157928,186.353779 L124.157928,186.353779 L129.345589,195.364732 C129.345589,195.369934 129.350776,195.369934 129.355964,195.375137 L129.713913,195.99425 L126.834761,197.659091 C126.077362,198.106517 125.185085,198.220975 124.329121,197.992059 C123.473156,197.763143 122.762447,197.216867 122.316308,196.457284 L117.118272,187.430723 L117.118272,187.430723 L117.118272,187.430723 L113.881171,189.298467 L119.068832,198.309419 C119.07402,198.314622 119.079208,198.319825 119.079208,198.325027 L119.514971,199.079409 L117.315403,200.634995 C115.940673,201.607886 114.057552,201.389376 113.061521,200.302026 L101.493037,183.851314 C101.140276,183.351862 100.574821,183.055312 99.9678644,183.055312 L94.0487431,183.055312 L94.0487431,150.393209 L115.006894,150.393209 L105.222965,158.977547 C104.496692,159.607065 104.060929,160.522727 104.029803,161.480011 C103.993489,162.442497 104.361813,163.384173 105.046584,164.065717 C109.466472,168.498357 116.480189,168.883352 121.356591,164.970975 L126.559815,160.793264 L135.135018,160.793264 L148.617749,187.212212 C149.52559,188.809419 148.980886,190.854053 147.403837,191.769715 Z M150.682439,183.065717 L137.936355,158.072289 C137.61472,157.447974 136.97145,157.052574 136.276304,157.052574 L125.900982,157.052574 C125.475594,157.052574 125.065768,157.198248 124.733758,157.463582 L119.016956,162.0523 C115.629413,164.768072 110.763387,164.507941 107.676729,161.802574 L124.199429,147.302848 C125.745352,145.939759 127.732226,145.195783 129.796915,145.195783 L143.606469,145.138554 L162.940882,149.987404 L162.940882,183.065717 C162.940882,183.065717 150.682439,183.065717 150.682439,183.065717 Z" id="partner" stroke="#2B2B2B" stroke-width="3" fill="#000000" fill-rule="nonzero"></path>
    </g>
</svg>