<?xml version="1.0" encoding="UTF-8"?>
<svg width="256px" height="256px" viewBox="0 0 256 256" version="1.1" xmlns="http://www.w3.org/2000/svg" xmlns:xlink="http://www.w3.org/1999/xlink">
    <title>voice</title>
    <g id="voice" stroke="none" stroke-width="1" fill="none" fill-rule="evenodd" stroke-linecap="round" stroke-linejoin="round">
        <path d="M148,87 C153.406133,88.05468 158.771933,90.4387467 162.666667,94.3333333 C166.5614,98.22792 168.945467,103.59416 170,109 M151,60 C162.7415,61.3044067 173.3077,66.98487 181.666667,75.3333333 C190.025633,83.6817967 195.680567,94.2599567 197,106 M196.995767,162.572867 L196.995767,183.196739 C197.027734,191.081106 189.938741,197.664731 181.979037,196.946241 C113.278069,197 60,143.227664 60.0537711,74.9877396 C59.3368801,67.0703402 65.8877668,60.008051 73.7616935,60 L94.4269361,60 C97.76989,59.9677882 101.010855,61.1492635 103.545585,63.3248282 C110.751864,69.5100111 115.387109,90.5036321 113.603825,98.8493096 C112.211296,105.365044 105.643056,109.923576 101.177614,114.379968 C110.983623,131.591772 125.262531,145.842086 142.507795,155.629235 C146.973236,151.172158 151.541428,144.617455 158.069481,143.227664 C166.444752,141.445137 187.573207,146.086403 193.733643,153.342852 C195.918794,155.916174 197.079489,159.201137 196.995767,162.572867 Z" id="Shape" stroke="#222222" stroke-width="7"></path>
    </g>
</svg>