<?xml version="1.0" encoding="UTF-8"?>
<svg width="256px" height="256px" viewBox="0 0 256 256" version="1.1" xmlns="http://www.w3.org/2000/svg" xmlns:xlink="http://www.w3.org/1999/xlink">
    <title>web</title>
    <g id="web" stroke="#006699" stroke-width="2" fill="none" fill-rule="evenodd">
        <g id="laptop" transform="translate(33.000000, 68.000000)" fill-rule="nonzero">
            <path d="M176,10.6000953 C176,4.74982935 171.265753,0 165.434679,0 L24.5653206,0 C18.7342469,0 14,4.74982935 14,10.6000953 L14,106 L176,106 L176,10.6000953 Z" id="Path" fill="#222222"></path>
            <path d="M169,12.8998574 C169,10.1953567 166.795013,8 164.079237,8 L25.9202852,8 C23.2045093,8 21,10.1953567 21,12.8998574 L21,106 L169,106 L169,12.8998574 L169,12.8998574 Z" id="Path" fill="#0699"></path>
            <path d="M109.131462,8 L80.869014,8 L80.869014,10.2036493 C80.8698018,11.4201032 81.8581838,12.4060377 83.0776574,12.4068237 L106.922343,12.4068237 C108.142002,12.4062997 109.130674,11.4202885 109.131462,10.2036493 L109.131462,8 Z M190,106.608556 C190,106.219593 189.683391,105.903768 189.293463,105.903768 L0.706537359,105.903768 C0.316608682,105.903768 0,106.219593 0,106.608556 L0,112.951647 C0,116.841753 3.16608741,120 7.06585012,120 L182.934626,120 C186.833913,120 190,116.841753 190,112.951647 L190,106.608556 Z" id="Shape" fill="#222"></path>
            <path d="M116,105 L74,105 C74,108.863783 76.9465988,112 80.5757218,112 L109.424278,112 C113.053401,112 116,108.863783 116,105 L116,105 Z" id="Path" fill="#069"></path>
            <path d="M101,9.5 C101,10.3284271 101.671573,11 102.5,11 C103.328427,11 104,10.3284271 104,9.5 C104,8.67157288 103.328427,8 102.5,8 C101.671573,8 101,8.67157288 101,9.5 Z" id="Path" fill="#0699"></path>
        </g>
    </g>
</svg>