<?xml version="1.0" encoding="UTF-8"?>
<svg width="121px" height="35px" viewBox="0 0 121 35" version="1.1" xmlns="http://www.w3.org/2000/svg" xmlns:xlink="http://www.w3.org/1999/xlink">
    <title>Slice 1</title>
    <g id="Page-1" stroke="none" stroke-width="1" fill="none" fill-rule="evenodd">
        <g id="Group" fill="#006699" fill-rule="nonzero">
            <path d="M110.6,25.6 L107,25.6 C106.2,25.6 105.7,25.1 105.7,24.4 C105.7,23.7 106.3,23.3 107,23.3 L113.5,23.3 L115,20 L107,20 C103.7,20 101.8,22 101.8,24.6 C101.8,27.4 103.6,29 106.5,29 L110.1,29 C110.9,29 111.4,29.5 111.4,30.2 C111.4,30.9 110.9,31.4 110.1,31.4 L102.3,31.4 L102.3,34.7 L110.1,34.7 C113.4,34.7 115.3,32.8 115.3,30 C115.3,27.2 113.6,25.6 110.6,25.6 M96.3,25.6 L92.7,25.6 C91.9,25.6 91.4,25.1 91.4,24.4 C91.4,23.7 92,23.3 92.7,23.3 L99.2,23.3 L100.7,20 L92.7,20 C89.4,20 87.5,22 87.5,24.6 C87.5,27.4 89.3,29 92.2,29 L95.8,29 C96.6,29 97.1,29.5 97.1,30.2 C97.1,30.9 96.6,31.4 95.8,31.4 L88,31.4 L88,34.7 L95.8,34.7 C99.1,34.7 101,32.8 101,30 C101,27.2 99.3,25.6 96.3,25.6" id="Shape"></path>
            <polygon id="Path" points="73.5 34.6 85.8 34.6 85.8 31.3 77.4 31.3 77.4 28.9 85.6 28.9 85.6 25.6 77.4 25.6 77.4 23.3 85.8 23.3 85.8 20 73.5 20"></polygon>
            <path d="M65.8,26.2 L61.7,26.2 L61.7,23.3 L65.8,23.3 C67,23.3 67.6,24 67.6,24.8 C67.5,25.6 66.9,26.2 65.8,26.2 M71.5,24.7 C71.5,21.9 69.5,20 66.3,20 L57.9,20 L57.9,34.6 L61.8,34.6 L61.8,29.5 L63.2,29.5 L67.6,34.6 L72.4,34.6 L67.6,29.3 C70,28.8 71.5,27 71.5,24.7 M50.5,26.5 L46.3,26.5 L46.3,23.3 L50.5,23.3 C51.7,23.3 52.3,24 52.3,24.9 C52.2,25.8 51.6,26.5 50.5,26.5 M50.9,20 L42.4,20 L42.4,34.6 L46.3,34.6 L46.3,29.8 L50.8,29.8 C54.1,29.8 56.1,27.7 56.1,24.9 C56.1,22 54.1,20 50.9,20" id="Shape"></path>
            <polygon id="Path" points="41.7 20 36.7 20 32.9 24.4 29.1 20 24 20 30.4 27.2 23.9 34.6 28.9 34.6 32.8 30 36.8 34.6 41.9 34.6 35.3 27.1"></polygon>
            <polygon id="Path" points="11 34.6 23.3 34.6 23.3 31.3 14.9 31.3 14.9 28.9 23.1 28.9 23.1 25.6 14.9 25.6 14.9 23.3 23.3 23.3 23.3 20 11 20"></polygon>
            <polygon id="Path" points="116.8 9.1 110.8 0.2 105.9 0.2 105.9 14.8 109.8 14.8 109.8 5.5 115.9 14.8 120.6 14.8 120.6 0.2 116.8 0.2"></polygon>
            <path d="M94.1,8.6 L96.1,3.7 L98.1,8.6 L94.1,8.6 Z M93.7,0.2 L87.3,14.8 L91.6,14.8 L92.8,11.8 L99.6,11.8 L100.9,14.8 L105.3,14.8 L98.7,0.2 L93.7,0.2 Z M80.9,7.6 L80.9,7.3 C80.9,5.1 82.1,3.6 84.6,3.6 L89,3.6 L89,0.2 L84.3,0.2 C79.5,0.2 77,3.3 77,7.3 L77,7.6 C77,12.1 79.8,14.7 84.1,14.7 L85.4,14.7 L87,11.4 L84.7,11.4 C82.4,11.5 80.9,10.2 80.9,7.6" id="Shape"></path>
            <polygon id="Path" points="71.1 0.2 71.1 7.5 71.1 14.8 73 14.8 75 14.8 75 7.5 75 0.2"></polygon>
            <path d="M63.3,6.4 L59.2,6.4 L59.2,3.5 L63.3,3.5 C64.5,3.5 65.1,4.2 65.1,5 C65.1,5.8 64.5,6.4 63.3,6.4 M69,4.9 C69,2.1 67,0.2 63.8,0.2 L55.4,0.2 L55.4,14.8 L59.3,14.8 L59.3,9.7 L60.7,9.7 L65.1,14.8 L70,14.8 L65.2,9.5 C67.6,9 69,7.2 69,4.9" id="Shape"></path>
            <polygon id="Path" points="40.5 14.8 52.8 14.8 52.8 11.5 44.4 11.5 44.4 9.1 52.6 9.1 52.6 5.8 44.4 5.8 44.4 3.5 52.8 3.5 52.8 0.2 40.5 0.2"></polygon>
            <polygon id="Path" points="28.1 9.4 24.8 0.2 18.7 0.2 18.7 14.8 22.5 14.8 22.5 4.3 26.3 14.8 29.8 14.8 33.7 4.3 33.7 14.8 37.5 14.8 37.5 0.2 31.4 0.2"></polygon>
            <path d="M6.9,8.6 L8.9,3.7 L10.9,8.6 L6.9,8.6 Z M6.4,0.2 L0,14.8 L4.3,14.8 L5.5,11.8 L12.3,11.8 L13.6,14.8 L18,14.8 L11.5,0.2 L6.4,0.2 Z" id="Shape"></path>
        </g>
    </g>
</svg>